Land_normalized_Precision Landing13_filtered_grf
version=1
nRows=15
nColumns=37
inDegrees=yes
endheader
time		1_ground_force_vx		1_ground_force_vy		1_ground_force_vz		1_ground_force_px		1_ground_force_py		1_ground_force_pz		1_ground_torque_x		1_ground_torque_y		1_ground_torque_z		2_ground_force_vx		2_ground_force_vy		2_ground_force_vz		2_ground_force_px		2_ground_force_py		2_ground_force_pz		2_ground_torque_x		2_ground_torque_y		2_ground_torque_z		3_ground_force_vx		3_ground_force_vy		3_ground_force_vz		3_ground_force_px		3_ground_force_py		3_ground_force_pz		3_ground_torque_x		3_ground_torque_y		3_ground_torque_z		4_ground_force_vx		4_ground_force_vy		4_ground_force_vz		4_ground_force_px		4_ground_force_py		4_ground_force_pz		4_ground_torque_x		4_ground_torque_y		4_ground_torque_z		
1.182833		6.424591		750.210574		152.882470		0.084321		0.000000		0.216224		0.131754		15.385073		3.135263		19.635144		751.410820		33.616794		-0.136863		0.000000		0.277176		0.199725		7.643212		0.341977		3.455541		-0.528282		-0.455458		0.353738		1.255189		1.891109		0.000600		0.022818		0.048244		-16.667075		0.459676		-2.234582		-0.288873		1.264839		1.901057		0.010759		-0.000297		0.001442		
1.186066		5.528450		736.761493		148.214452		0.084366		0.000000		0.215878		0.113154		15.079659		3.033579		19.458448		757.254019		29.727537		-0.136945		0.000000		0.277403		0.178747		6.956129		0.273083		3.438047		-0.541706		-0.469913		0.353721		1.255169		1.891105		-0.000192		0.025005		0.048790		-16.666465		0.503631		-2.337046		-0.288874		1.264852		1.901043		0.009041		-0.000273		0.001267		
1.189298		4.361794		723.509094		143.951788		0.084536		0.000000		0.215770		0.088862		14.739773		2.932675		18.714814		759.433661		27.945236		-0.136953		0.000000		0.277309		0.161941		6.571381		0.241812		3.514100		-0.563779		-0.474257		0.353697		1.255155		1.891105		-0.002154		0.026031		0.048843		-16.670158		0.568563		-2.496766		-0.288876		1.264868		1.901034		0.006977		-0.000238		0.001045		
1.192530		2.998418		711.093052		140.032691		0.084765		0.000000		0.215791		0.060854		14.431760		2.841989		17.476154		758.143545		28.352229		-0.136876		0.000000		0.276880		0.150066		6.510133		0.243459		3.660506		-0.559920		-0.455813		0.353664		1.255150		1.891110		-0.005063		0.024991		0.048141		-16.694839		0.654786		-2.655793		-0.288881		1.264883		1.901033		0.005991		-0.000235		0.000953		
1.195763		1.436390		700.040027		136.461378		0.084961		0.000000		0.215764		0.029061		14.162942		2.760835		15.807202		753.750700		30.761968		-0.136715		0.000000		0.276138		0.141476		6.746410		0.275345		3.828039		-0.502725		-0.406021		0.353619		1.255154		1.891120		-0.008248		0.021959		0.046907		-16.748183		0.738458		-2.770209		-0.288890		1.264895		1.901043		0.006689		-0.000295		0.001107		
1.198995		-0.366499		690.709771		133.318726		0.085081		0.000000		0.215592		-0.007370		13.890248		2.681054		13.801526		746.780015		34.676448		-0.136488		0.000000		0.275133		0.133141		7.204097		0.334521		3.963189		-0.390167		-0.326697		0.353567		1.255162		1.891132		-0.010646		0.018089		0.045979		-16.818405		0.784850		-2.819681		-0.288904		1.264900		1.901060		0.008578		-0.000400		0.001438		
1.202227		-2.422884		683.276345		130.701630		0.085148		0.000000		0.215299		-0.048221		13.599589		2.601421		11.611447		737.697432		39.518474		-0.136219		0.000000		0.273924		0.122765		7.800258		0.417894		4.036003		-0.246742		-0.236405		0.353512		1.255172		1.891143		-0.011116		0.014953		0.046372		-16.876148		0.770993		-2.809579		-0.288923		1.264899		1.901079		0.010664		-0.000487		0.001775		
1.205460		-4.665592		677.539471		128.648837		0.085194		0.000000		0.214951		-0.091774		13.327517		2.530583		9.457357		726.960234		44.774827		-0.135938		0.000000		0.272563		0.110197		8.470835		0.521747		4.053287		-0.109722		-0.171774		0.353459		1.255180		1.891154		-0.009040		0.013641		0.048454		-16.887449		0.700635		-2.761298		-0.288946		1.264893		1.901096		0.012253		-0.000508		0.002004		
1.208692		-6.980482		672.956509		127.172494		0.085200		0.000000		0.214562		-0.135884		13.100181		2.475617		7.565936		714.970909		50.109896		-0.135676		0.000000		0.271082		0.097168		9.183321		0.643671		4.045052		-0.007381		-0.174159		0.353406		1.255184		1.891166		-0.004646		0.014269		0.051557		-16.827225		0.596574		-2.695853		-0.288970		1.264882		1.901104		0.013268		-0.000471		0.002125		
1.211924		-9.235735		668.732371		126.247719		0.085111		0.000000		0.214093		-0.178194		12.902605		2.435839		6.090797		702.200877		55.304702		-0.135456		0.000000		0.269517		0.086017		9.917436		0.781113		4.041859		0.052058		-0.265275		0.353354		1.255184		1.891181		0.000894		0.016118		0.054294		-16.691342		0.487680		-2.625703		-0.288996		1.264870		1.901106		0.013960		-0.000408		0.002196		
1.215157		-11.297545		664.121401		125.814285		0.084872		0.000000		0.213509		-0.216554		12.730099		2.411649		5.076614		689.193851		60.177554		-0.135288		0.000000		0.267913		0.078425		10.647449		0.929730		4.055872		0.073738		-0.432511		0.353301		1.255179		1.891202		0.005919		0.018320		0.055468		-16.498660		0.396886		-2.554109		-0.289026		1.264859		1.901104		0.014402		-0.000346		0.002229		
1.218389		-13.062155		658.667267		125.774107		0.084476		0.000000		0.212841		-0.250147		12.613792		2.408634		4.466406		676.562793		64.573430		-0.135168		0.000000		0.266329		0.074867		11.340945		1.082446		4.078929		0.063799		-0.628341		0.353252		1.255170		1.891230		0.008976		0.020247		0.054828		-16.287974		0.337100		-2.483059		-0.289059		1.264850		1.901105		0.014338		-0.000297		0.002185		
1.221621		-14.496947		652.282252		126.047663		0.083964		0.000000		0.212158		-0.279395		12.571184		2.429269		4.170128		664.935940		68.414306		-0.135090		0.000000		0.264824		0.075097		11.974455		1.232059		4.089540		0.023345		-0.791217		0.353206		1.255161		1.891261		0.009406		0.021450		0.053135		-16.105848		0.311930		-2.419140		-0.289096		1.264846		1.901113		0.013431		-0.000260		0.002017		
1.224854		-15.640923		645.178559		126.615353		0.083401		0.000000		0.211497		-0.304710		12.569054		2.466661		4.121665		654.871510		71.738612		-0.135062		0.000000		0.263453		0.078964		12.546108		1.374399		4.065677		-0.044917		-0.873024		0.353169		1.255151		1.891294		0.007496		0.021560		0.051461		-15.992550		0.318019		-2.375430		-0.289135		1.264848		1.901133		0.011589		-0.000230		0.001722		
1.228086		-16.534234		637.746274		127.503498		0.082818		0.000000		0.210819		-0.325884		12.569713		2.513043		4.294790		646.741363		74.644608		-0.135102		0.000000		0.262246		0.086784		13.068396		1.508320		4.000598		-0.128458		-0.857750		0.353148		1.255143		1.891323		0.004160		0.020413		0.050248		-15.967929		0.348932		-2.365244		-0.289170		1.264856		1.901162		0.009027		-0.000197		0.001337		
